<svg fill="none" height="32" viewBox="0 0 32 32" width="32" xmlns="http://www.w3.org/2000/svg"><path d="m32 16c0-8.83656-7.1634-16-16-16-8.83656 0-16 7.16344-16 16 0 8.8366 7.16344 16 16 16 8.8366 0 16-7.1634 16-16z" fill="#9146ff"/><g fill="#fff"><path d="m12.0021 9.42813-2.8571 2.85717v10.2857h3.4286v2.8571l2.8571-2.8571h2.2857l5.1429-5.1429v-7.99997zm9.7143 7.42857-2.2857 2.2857h-2.2857l-2 2v-2h-2.5714v-8.5714h9.1428z"/><path d="m20.0021 12.571h-1.1428v3.4286h1.1428z"/><path d="m16.8593 12.571h-1.1429v3.4286h1.1429z"/></g></svg>